HIERARCHY
ROOT Hips
{
 OFFSET 0.000000 0.000000 0.000000
 CHANNELS 6 Xposition Yposition Zposition Yrotation Xrotation Zrotation
 JOINT Chest
 {
  OFFSET 0.000000 103.927959 -11.547555
  CHANNELS 3 Yrotation Xrotation Zrotation
  JOINT Chest2
  {
   OFFSET 0.000000 116.259650 0.000000
   CHANNELS 3 Yrotation Xrotation Zrotation
   JOINT Chest3
   {
    OFFSET 0.000000 106.135078 0.000000
    CHANNELS 3 Yrotation Xrotation Zrotation
    JOINT Chest4
    {
     OFFSET 0.000000 106.016608 0.000000
     CHANNELS 3 Yrotation Xrotation Zrotation
     JOINT Neck
     {
      OFFSET 0.000000 148.478086 0.000000
      CHANNELS 3 Yrotation Xrotation Zrotation
      JOINT Head
      {
       OFFSET 0.000000 98.684725 0.000000
       CHANNELS 3 Yrotation Xrotation Zrotation
       End Site
       {
        OFFSET 0.000000 183.657339 0.000000
       }
      }
     }
     JOINT RightCollar
     {
      OFFSET -32.301251 83.229558 0.000000
      CHANNELS 3 Yrotation Xrotation Zrotation
      JOINT RightShoulder
      {
       OFFSET -148.983121 0.000000 0.000000
       CHANNELS 3 Yrotation Xrotation Zrotation
       JOINT RightElbow
       {
        OFFSET 0.000000 -318.416921 0.000000
        CHANNELS 3 Yrotation Xrotation Zrotation
        JOINT RightWrist
        {
         OFFSET 0.000000 -260.384535 0.000000
         CHANNELS 3 Yrotation Xrotation Zrotation
         End Site
         {
          OFFSET 0.000000 -194.729091 0.000000
         }
        }
       }
      }
     }
     JOINT LeftCollar
     {
      OFFSET 32.301251 83.229558 0.000000
      CHANNELS 3 Yrotation Xrotation Zrotation
      JOINT LeftShoulder
      {
       OFFSET 148.983121 0.000000 0.000000
       CHANNELS 3 Yrotation Xrotation Zrotation
       JOINT LeftElbow
       {
        OFFSET 0.000000 -318.416921 0.000000
        CHANNELS 3 Yrotation Xrotation Zrotation
        JOINT LeftWrist
        {
         OFFSET 0.000000 -260.384535 0.000000
         CHANNELS 3 Yrotation Xrotation Zrotation
         End Site
         {
          OFFSET 0.000000 -194.729091 0.000000
         }
        }
       }
      }
     }
    }
   }
  }
 }
 JOINT RightHip
 {
  OFFSET -85.448433 0.000000 0.000000
  CHANNELS 3 Yrotation Xrotation Zrotation
  JOINT RightKnee
  {
   OFFSET 0.000000 -444.902608 0.000000
   CHANNELS 3 Yrotation Xrotation Zrotation
   JOINT RightAnkle
   {
    OFFSET 0.000000 -434.916856 0.000000
    CHANNELS 3 Yrotation Xrotation Zrotation
    JOINT RightToe
    {
     OFFSET 0.000000 -65.483541 148.093546
     CHANNELS 3 Yrotation Xrotation Zrotation
     End Site
     {
      OFFSET 0.000000 -15.533754 66.277348
     }
    }
   }
  }
 }
 JOINT LeftHip
 {
  OFFSET 85.448433 0.000000 0.000000
  CHANNELS 3 Yrotation Xrotation Zrotation
  JOINT LeftKnee
  {
   OFFSET 0.000000 -444.902608 0.000000
   CHANNELS 3 Yrotation Xrotation Zrotation
   JOINT LeftAnkle
   {
    OFFSET 0.000000 -434.916856 0.000000
    CHANNELS 3 Yrotation Xrotation Zrotation
    JOINT LeftToe
    {
     OFFSET 0.000000 -65.483541 148.093546
     CHANNELS 3 Yrotation Xrotation Zrotation
     End Site
     {
      OFFSET 0.000000 -15.533754 66.277348
     }
    }
   }
  }
 }
}
MOTION
Frames: 5
Frame Time: 0.016667
-2387.408692 946.912758 3985.993467 -155.477067 7.964348 -7.810813 -0.728207 1.516859 6.637137 -0.646046 -5.154896 2.963752 -0.643776 0.665175 2.898163 -0.263780 6.328309 2.187510 15.076803 16.590148 -8.306208 30.494637 -1.527615 -20.119046 16.243952 -10.776220 5.094395 20.969169 -22.890840 -30.226630 -26.064626 -61.582541 78.619081 -7.685880 -7.452380 5.662021 0.650750 -10.265178 -7.159193 -1.910022 -12.361393 33.931548 73.325982 -67.321367 -109.491755 7.611776 -8.788913 -9.436437 -4.824214 -7.054825 13.138924 0.062422 5.548425 0.991085 -14.508862 -8.390105 -1.157730 0.000000 0.000000 0.000000 8.361296 -23.242790 20.387164 2.291021 13.334185 0.641102 -3.208595 6.595638 -11.278502 0.106245 -5.547629 -2.192601
-2388.750355 946.538584 3985.729123 -155.454488 7.927552 -7.503035 -0.726147 1.521730 6.541894 -0.640576 -5.152776 2.921245 -0.638323 0.667299 2.856212 -0.262867 6.330092 2.155858 15.067465 16.613968 -8.261979 30.459042 -1.501962 -20.030116 16.192688 -10.719180 5.149848 21.003090 -23.037323 -30.241776 -25.870701 -61.532227 78.415002 -7.687253 -7.454600 5.627433 0.633163 -10.119806 -7.145042 -2.052384 -12.725569 34.215307 73.869207 -67.346269 -110.090689 7.783690 -8.664121 -9.400845 -4.719020 -7.019685 12.652632 0.145543 5.490802 1.095201 -14.588697 -8.423291 -1.128220 0.000000 0.000000 0.000000 8.117440 -23.049681 20.179204 2.572336 13.510502 0.609624 -3.110748 6.419281 -11.414938 0.096959 -5.535188 -2.004044
-2390.092019 946.164410 3985.464778 -155.432111 7.890637 -7.195300 -0.724063 1.526657 6.446655 -0.635096 -5.150623 2.878740 -0.632864 0.669459 2.814263 -0.261950 6.331901 2.124208 15.058084 16.637731 -8.217746 30.423328 -1.476390 -19.941224 16.141366 -10.662192 5.205254 21.037406 -23.183739 -30.256941 -25.677307 -61.481765 78.211408 -7.688554 -7.456816 5.592832 0.615366 -9.974465 -7.130838 -2.195503 -13.089316 34.500439 74.415416 -67.368890 -110.690987 7.955990 -8.539623 -9.365559 -4.614213 -6.983272 12.166466 0.228441 5.432676 1.199093 -14.668596 -8.456416 -1.098790 0.000000 0.000000 0.000000 7.872631 -22.859016 19.970208 2.853597 13.686659 0.577968 -3.013073 6.242896 -11.551748 0.087705 -5.522817 -1.815487
-2391.368267 945.894255 3985.190232 -155.425079 7.826096 -6.898815 -0.735263 1.552978 6.356485 -0.636062 -5.139137 2.838518 -0.633836 0.680944 2.773943 -0.265773 6.340665 2.093829 15.060267 16.668619 -8.154387 30.401510 -1.440625 -19.819036 16.087781 -10.638594 5.238412 21.093706 -23.297006 -30.263969 -25.442925 -61.427294 77.968281 -7.671033 -7.446092 5.555951 0.611279 -9.909175 -7.111148 -2.352333 -13.709833 35.117721 75.161863 -67.369772 -111.466445 8.128895 -8.148701 -9.266410 -4.455721 -6.915661 11.721781 0.302459 5.362381 1.270709 -14.754355 -8.457495 -1.076112 0.000000 0.000000 -0.000000 7.793542 -22.700926 19.727055 3.055856 13.874713 0.500561 -2.911666 6.064473 -11.512819 0.083879 -5.485830 -1.750645
-2392.516668 945.761950 3984.800843 -155.416200 7.707025 -6.608646 -0.771390 1.612063 6.263552 -0.648407 -5.113426 2.797122 -0.646160 0.706641 2.731291 -0.278340 6.360045 2.061754 15.078622 16.705399 -8.054388 30.397133 -1.401255 -19.633461 16.017876 -10.658999 5.243026 21.170113 -23.368911 -30.235464 -25.114231 -61.354230 77.633973 -7.617627 -7.415794 5.511072 0.624515 -9.950122 -7.088528 -2.577022 -14.661457 36.224352 76.303876 -67.319211 -112.599562 8.297621 -7.360000 -9.069711 -4.185701 -6.790563 11.338057 0.350953 5.279116 1.287745 -14.877068 -8.414838 -1.073480 -0.000000 -0.000000 -0.000000 7.942968 -22.580908 19.441994 3.107285 14.105000 0.324113 -2.761070 5.870270 -11.176043 0.089103 -5.412667 -1.892979
